HIERARCHY
ROOT ui
{
	 OFFSET 0 0 0
	 CHANNELS 3 XPosition YPosition Z Position
	 EndSite
	 {
	 OFFSET 0 -1 0
	 }
}
ROOT li
{
	 OFFSET 0 0 0
	 CHANNELS 3 XPosition YPosition Z Position
	 EndSite
	 {
	 OFFSET 0 -1 0
	 }
}
ROOT ul
{
	 OFFSET 0 0 0
	 CHANNELS 3 XPosition YPosition Z Position
	 EndSite
	 {
	 OFFSET 0 -1 0
	 }
}
ROOT ll
{
	 OFFSET 0 0 0
	 CHANNELS 3 XPosition YPosition Z Position
	 EndSite
	 {
	 OFFSET 0 -1 0
	 }
}
ROOT tt
{
	 OFFSET 0 0 0
	 CHANNELS 3 XPosition YPosition Z Position
	 EndSite
	 {
	 OFFSET 0 -1 0
	 }
}
ROOT tb
{
	 OFFSET 0 0 0
	 CHANNELS 3 XPosition YPosition Z Position
	 EndSite
	 {
	 OFFSET 0 -1 0
	 }
}
ROOT td
{
	 OFFSET 0 0 0
	 CHANNELS 3 XPosition YPosition Z Position
	 EndSite
	 {
	 OFFSET 0 -1 0
	 }
}
ROOT v
{
	 OFFSET 0 0 0
	 CHANNELS 3 XPosition YPosition Z Position
	 EndSite
	 {
	 OFFSET 0 -1 0
	 }
}
ROOT bn
{
	 OFFSET 0 0 0
	 CHANNELS 3 XPosition YPosition Z Position
	 EndSite
	 {
	 OFFSET 0 -1 0
	 }
}
MOTION
Frames: 16
Frame Time: 0.002
0.004659398078918457	-0.0020748989582061767	0		0.4750285339355469	-2.532564697265625	0		-1.028942626953125	-0.04937106323242187	0		-0.660393798828125	-2.651712158203125	0		1.2729500732421875	-0.866495361328125	0		3.087281982421875	-0.4060154724121094	0		4.78725732421875	-0.24125929260253906	0		5.559341796875	0.11501870727539062	0		-0.19153263854980468	5.89752587890625	0		
-0.0015626219511032104	0.002588268041610718	0		0.44908282470703126	-2.5276259765625	0		-1.1021552734375	-0.04406867218017578	0		-0.69934814453125	-2.6487509765625	0		1.271765625	-0.8667501220703125	0		3.103990234375	-0.41127459716796877	0		4.78907177734375	-0.2351660614013672	0		5.56805029296875	0.11511772918701171	0		-0.21140635681152345	5.9013134765625	0		
0.01927287483215332	0.005941527843475342	0		0.4402727355957031	-2.51689111328125	0		-1.0133521728515624	-0.044590171813964845	0		-0.6982456665039063	-2.647251220703125	0		1.2796185302734375	-0.8701137084960937	0		3.083017578125	-0.3941182556152344	0		4.78095703125	-0.22897044372558595	0		5.56680810546875	0.11332067108154296	0		-0.2132545928955078	5.900888671875	0		
0.007215888023376465	0.011661675453186035	0		0.4533741455078125	-2.521400146484375	0		-1.0963995361328125	-0.03819937133789063	0		-0.69908544921875	-2.647728515625	0		1.2756988525390625	-0.860346923828125	0		3.080837890625	-0.40317941284179687	0		4.79085791015625	-0.2289824981689453	0		5.5556953125	0.11562362670898438	0		-0.24906195068359374	5.89583740234375	0		
0.025108787536621095	0.004059247016906738	0		0.45671682739257813	-2.511793701171875	0		-1.0214393920898437	-0.040538188934326175	0		-0.6757962036132813	-2.644459716796875	0		1.2717274169921875	-0.8635778198242188	0		3.092981201171875	-0.391397705078125	0		4.77578857421875	-0.23472752380371092	0		5.54975341796875	0.12485921478271485	0		-0.2317705078125	5.8892080078125	0		
-0.005849239826202393	0.001000285029411316	0		0.4290644226074219	-2.50984228515625	0		-1.0304373779296876	-0.04793922424316406	0		-0.67645849609375	-2.644912841796875	0		1.26784375	-0.8678035278320313	0		3.089039794921875	-0.39644100952148437	0		4.784884765625	-0.23474305725097655	0		5.55371630859375	0.11597565460205078	0		-0.23426528930664062	5.89081005859375	0		
0.024273706436157227	-0.004702683925628662	0		0.4742760314941406	-2.52966357421875	0		-1.025308349609375	-0.05347229766845703	0		-0.7420778198242187	-2.64965234375	0		1.2671048583984375	-0.8680535888671875	0		3.056268310546875	-0.395175048828125	0		4.77714990234375	-0.22858328247070311	0		5.558787109375	0.10707044982910156	0		-0.21955311584472656	5.8992451171875	0		
0.0046342058181762695	0.0021479361057281494	0		0.42289727783203124	-2.519432861328125	0		-1.0939300537109375	-0.04519612503051758	0		-0.7395125122070313	-2.646103759765625	0		1.2774776611328125	-0.8674091796875	0		3.10552197265625	-0.4017832336425781	0		4.78236962890625	-0.23656962585449218	0		5.56213623046875	0.11417478942871094	0		-0.2538820495605469	5.89122314453125	0		
0.03313729476928711	0.012511123657226562	0		0.47157977294921877	-2.512244873046875	0		-1.0145100708007813	-0.04346184921264649	0		-0.7378798828125	-2.6445185546875	0		1.276939697265625	-0.8676329956054688	0		3.057189697265625	-0.37834921264648436	0		4.77586328125	-0.22843589782714843	0		5.55744189453125	0.1073538818359375	0		-0.23702110290527345	5.88768115234375	0		
4.6873199939727783E-4	-0.0024580249786376952	0		0.4402440185546875	-2.51419091796875	0		-1.02500830078125	-0.04274353408813476	0		-0.6802206420898438	-2.648489013671875	0		1.268526611328125	-0.8647568969726562	0		3.06045556640625	-0.40245809936523436	0		4.77738916015625	-0.22639120483398437	0		5.5569208984375	0.10748058319091797	0		-0.27204351806640625	5.88271142578125	0		
-0.004902879238128662	0.0023125998973846434	0		0.45603125	-2.511606689453125	0		-1.0194813842773438	-0.04816032409667969	0		-0.719451904296875	-2.648414306640625	0		1.268164794921875	-0.8649466552734375	0		3.060060546875	-0.40251889038085936	0		4.7818984375	-0.2343799285888672	0		5.5505830078125	0.11666119384765625	0		-0.2398199005126953	5.88906787109375	0		
-0.00928054428100586	-9.004999995231628E-4	0		0.4309034729003906	-2.506572998046875	0		-1.019824951171875	-0.04848192977905273	0		-0.683677001953125	-2.6540869140625	0		1.2648341064453126	-0.8690858154296875	0		3.083625732421875	-0.413817626953125	0		4.78156689453125	-0.23431787109375	0		5.55613525390625	0.10771269226074219	0		-0.22446418762207032	5.89763232421875	0		
-0.004612541198730469	-0.0061785922050476075	0		0.4495997924804688	-2.52396728515625	0		-1.0960882568359376	-0.04699128341674805	0		-0.7437728271484375	-2.651739990234375	0		1.2706778564453125	-0.8622974243164062	0		3.061750732421875	-0.3766334228515625	0		4.77843408203125	-0.22122413635253907	0		5.559919921875	0.11478199005126953	0		-0.22411294555664063	5.8963818359375	0		
-0.003642179012298584	0.012612053871154785	0		0.4337314453125	-2.502978271484375	0		-1.020323486328125	-0.049025005340576175	0		-0.6788013916015625	-2.647642333984375	0		1.2705020751953124	-0.8624246826171875	0		3.09736279296875	-0.39502716064453125	0		4.7851513671875	-0.228227294921875	0		5.5497109375	0.11699514770507813	0		-0.22565428161621093	5.897181640625	0		
-0.005929062843322754	0.0014641859531402588	0		0.43266366577148435	-2.505114501953125	0		-1.096481689453125	-0.047474411010742186	0		-0.7198597412109375	-2.64942919921875	0		1.2703712158203124	-0.8625286865234375	0		3.09228955078125	-0.38698797607421875	0		4.77398876953125	-0.22804106140136718	0		5.5554384765625	0.10804823303222656	0		-0.2412395477294922	5.886154296875	0		
-0.0011125270128250122	-0.003725559949874878	0		0.45759512329101565	-2.51048583984375	0		-1.0265753173828125	-0.04437149429321289	0		-0.6839221801757812	-2.654965087890625	0		1.2613092041015626	-0.8595183715820313	0		3.08812451171875	-0.39194354248046875	0		4.77588671875	-0.22597976684570312	0		5.55530078125	0.10816598510742187	0		-0.2766830749511719	5.882357421875	0		
